<svg xmlns="http://www.w3.org/2000/svg" xmlns:xlink="http://www.w3.org/1999/xlink" id="body_1" preserveAspectRatio="xMinYMin meet" viewBox="0 0 816 1056"><defs><clipPath id="1"><path id="" clip-rule="evenodd" transform="matrix(1 0 0 1 0 0)" d="M0 792L0 0L0 0L612 0L612 0L612 792L612 792L0 792z" /></clipPath><clipPath id="2"><path id="" clip-rule="evenodd" transform="matrix(1 0 0 1 0 0)" d="M0 792L612 792L612 792L612 0L612 0L0 0z" /></clipPath><clipPath id="3"><path id="" clip-rule="evenodd" transform="matrix(1 0 0 1 0 0)" d="M0 792L612 792L612 792L612 0L612 0L0 0z" /></clipPath></defs><g transform="matrix(1.333333 0 0 1.333333 0 0)"><g clip-path="url(#1)"><path id="1" transform="matrix(1 0 0 -1 0 792)" d="M0 0L612 0L612 792L0 792z" stroke="none" fill="#9ED91C" fill-rule="nonzero" /><g clip-path="url(#2)"><path id="2" transform="matrix(1 0 0 -1 0 792)" d="M551.3425 537.3281C 551.0526 544.2241 550.7785 552.2081 550.5305 560.4381" stroke="#5C6E54" stroke-width="1.2" stroke-dasharray="1.014167,4.3475" fill="none" /><path id="3" transform="matrix(1 0 0 -1 0 792)" d="M550.1122 569.2534C 547.3812 600.9564 529.5172 629.4834 502.0332 645.7164" stroke="#5C6E54" stroke-width="1.2" stroke-dasharray="1,4.175" fill="none" /><path id="4" transform="matrix(1 0 0 -1 0 792)" d="M494.3774 649.7958C 475.3824 658.8708 453.9694 661.6348 433.2554 657.6458" stroke="#5C6E54" stroke-width="1.2" stroke-dasharray="1,4.135" fill="none" /><path id="5" transform="matrix(1 0 0 -1 0 792)" d="M424.731 655.7802C 405.574 651.5002 383.6 646.7692 367.578 643.8432" stroke="#5C6E54" stroke-width="1.2" stroke-dasharray="1,4.205" fill="none" /><path id="6" transform="matrix(1 0 0 -1 0 792)" d="M358.9594 642.3146C 275.4854 627.5856 182.1544 609.7456 118.3204 533.5206" stroke="#5C6E54" stroke-width="1.2" stroke-dasharray="1,4.191667" fill="none" /><path id="7" transform="matrix(1 0 0 -1 0 792)" d="M112.8259 526.7286C 75.9059 479.5406 57.0899 423.2356 57.8269 366.4836" stroke="#5C6E54" stroke-width="1.2" stroke-dasharray="1,4.184166" fill="none" /><path id="8" transform="matrix(1 0 0 -1 0 792)" d="M57.9382 357.812C 59.3062 291.659 87.3782 230.218 130.8722 190.974" stroke="#5C6E54" stroke-width="1.2" stroke-dasharray="1,4.135" fill="none" /><path id="9" transform="matrix(1 0 0 -1 0 792)" d="M137.4717 185.2815C 177.3797 152.3405 231.3087 133.2845 286.7907 132.5945" stroke="#5C6E54" stroke-width="1.2" stroke-dasharray="1,4.195" fill="none" /><path id="10" transform="matrix(1 0 0 -1 0 792)" d="M302.3297 132.6342C 374.9217 134.1642 440.2147 165.5982 487.0137 221.6112" stroke="#5C6E54" stroke-width="1.2" stroke-dasharray="1,4.144166" fill="none" /><path id="11" transform="matrix(1 0 0 -1 0 792)" d="M492.4592 228.3488C 561.2502 316.4378 556.5672 428.6848 551.7532 528.4238" stroke="#5C6E54" stroke-width="1.2" stroke-dasharray="1,4.1475" fill="none" /><path id="12" transform="matrix(1 0 0 -1 0 792)" d="M551.634 530.9102C 551.624 531.1093 551.614 531.3092 551.605 531.5092C 551.595 531.7102 551.585 531.9132 551.575 532.1172M488.599 223.5262C 488.726 223.6812 488.853 223.8352 488.979 223.9902C 489.106 224.1452 489.232 224.3002 489.358 224.4562M296.158 132.5802C 296.357 132.5772 296.557 132.5752 296.758 132.5752C 296.958 132.5752 297.158 132.5762 297.358 132.5762M292.403 132.6452C 292.603 132.6512 292.802 132.6562 293.003 132.6582C 293.203 132.6552 293.403 132.6512 293.603 132.6462M289.308 132.5762C 289.508 132.5762 289.708 132.5752 289.908 132.5752L289.908 132.5752L289.913 132.5752C 290.114 132.5752 290.314 132.5782 290.513 132.5822M132.725 189.3232C 132.876 189.1912 133.026 189.0592 133.177 188.9282C 133.327 188.7962 133.478 188.6652 133.629 188.5342M57.87201 363.9732C 57.87601 363.7732 57.88101 363.5732 57.88602 363.3742C 57.88602 363.1742 57.88602 362.9742 57.88602 362.7742M116.715 531.5842C 116.588 531.4292 116.462 531.2742 116.335 531.1192C 116.209 530.9642 116.082 530.8092 115.956 530.6542M365.095 643.3962C 364.897 643.3612 364.7 643.3262 364.504 643.2913C 364.307 643.2572 364.11 643.2222 363.913 643.1873M430.825 657.1462C 430.63 657.1032 430.435 657.0592 430.24 657.0162C 430.045 656.9722 429.85 656.9282 429.654 656.8842M499.86 646.9622C 499.685 647.0592 499.51 647.1563 499.335 647.2532L499.335 647.2532L499.326 647.2582C 499.15 647.3542 498.975 647.4502 498.799 647.5452M550.453 563.0452C 550.447 563.2482 550.441 563.4503 550.435 563.6532C 550.429 563.8532 550.423 564.0532 550.416 564.2532" stroke="#5C6E54" stroke-width="1.2" fill="none" /><path id="13" transform="matrix(1 0 0 -1 0 792)" d="M423.0528 270.6082C 391.4288 234.2132 347.9788 213.9012 299.8428 213.0692" stroke="#5C6E54" stroke-width="1.2" stroke-dasharray="1,4.143333" fill="none" /><path id="14" transform="matrix(1 0 0 -1 0 792)" d="M291.1322 213.1254C 235.6722 214.7684 202.7962 240.4704 189.6642 254.2884" stroke="#5C6E54" stroke-width="1.2" stroke-dasharray="1,4.183333" fill="none" /><path id="15" transform="matrix(1 0 0 -1 0 792)" d="M185.9353 261.4348C 186.0073 262.4238 186.2973 263.3948 186.7963 264.2688" stroke="#5C6E54" stroke-width="1.2" stroke-dasharray="1,3.881666" fill="none" /><path id="16" transform="matrix(1 0 0 -1 0 792)" d="M193.3409 269.5691C 206.6109 278.5911 221.0769 287.4601 236.3829 296.7261" stroke="#5C6E54" stroke-width="1.2" stroke-dasharray="1,4.138333" fill="none" /><path id="17" transform="matrix(1 0 0 -1 0 792)" d="M246.662 291.5322C 265.808 276.5582 290.749 267.8052 316.318 267.1502" stroke="#5C6E54" stroke-width="1.2" stroke-dasharray="1,4.151666" fill="none" /><path id="18" transform="matrix(1 0 0 -1 0 792)" d="M325.051 267.2363C 357.496 268.6903 386.719 282.6903 408.298 307.1283" stroke="#5C6E54" stroke-width="1.2" stroke-dasharray="1,4.203333" fill="none" /><path id="19" transform="matrix(1 0 0 -1 0 792)" d="M413.63 314.2773C 418.536 323.1023 418.768 333.9203 413.319 342.3693" stroke="#5C6E54" stroke-width="1.2" stroke-dasharray="1.009167,4.3425" fill="none" /><path id="20" transform="matrix(1 0 0 -1 0 792)" d="M407.45 348.8187C 396.787 357.3337 381.575 356.4097 372.009 347.0797" stroke="#5C6E54" stroke-width="1.2" stroke-dasharray="1,4.121666" fill="none" /><path id="21" transform="matrix(1 0 0 -1 0 792)" d="M366.3147 340.7006C 354.5777 328.3546 339.5577 321.5376 322.4477 320.8186" stroke="#5C6E54" stroke-width="1.2" stroke-dasharray="1,4.0675" fill="none" /><path id="22" transform="matrix(1 0 0 -1 0 792)" d="M313.4478 321.0128C 309.8948 321.3208 306.3998 321.9018 303.0078 322.7368" stroke="#5C6E54" stroke-width="1.2" stroke-dasharray="1.093333,4.426666" fill="none" /><path id="23" transform="matrix(1 0 0 -1 0 792)" d="M295.412 328.1448C 295.014 329.6168 295.106 331.2238 295.728 332.6558" stroke="#5C6E54" stroke-width="1.2" stroke-dasharray="1.449167,4.7825" fill="none" /><path id="24" transform="matrix(1 0 0 -1 0 792)" d="M302.6821 338.645C 342.8761 366.517 382.2551 400.879 412.6361 450.442" stroke="#5C6E54" stroke-width="1.2" stroke-dasharray="1,4.143333" fill="none" /><path id="25" transform="matrix(1 0 0 -1 0 792)" d="M416.6934 458.2717C 420.0184 467.5517 418.5214 478.0937 412.0604 485.4997" stroke="#5C6E54" stroke-width="1.2" stroke-dasharray="1,4.294167" fill="none" /><path id="26" transform="matrix(1 0 0 -1 0 792)" d="M405.3455 491.0159C 393.5395 497.9239 378.5865 494.7649 370.4885 484.1159" stroke="#5C6E54" stroke-width="1.2" stroke-dasharray="1,4.125834" fill="none" /><path id="27" transform="matrix(1 0 0 -1 0 792)" d="M365.868 476.8019C 340.348 435.8539 307.007 406.8459 271.465 382.2829" stroke="#5C6E54" stroke-width="1.2" stroke-dasharray="1,4.15" fill="none" /><path id="28" transform="matrix(1 0 0 -1 0 792)" d="M262.6572 379.8672C 261.1342 380.4852 259.8382 381.6412 259.0962 383.1452" stroke="#5C6E54" stroke-width="1.2" stroke-dasharray="1.6375,4.970833" fill="none" /><path id="29" transform="matrix(1 0 0 -1 0 792)" d="M259.1508 392.0472C 260.8308 401.9012 264.8278 411.8592 271.6518 421.1762" stroke="#5C6E54" stroke-width="1.2" stroke-dasharray="1,4.056666" fill="none" /><path id="30" transform="matrix(1 0 0 -1 0 792)" d="M276.4835 428.1838C 281.5815 437.9318 280.8915 450.0868 273.8915 458.5328" stroke="#5C6E54" stroke-width="1.2" stroke-dasharray="1,4.076667" fill="none" /><path id="31" transform="matrix(1 0 0 -1 0 792)" d="M267.2513 464.2415C 256.8803 470.5545 243.4463 469.0765 234.6973 460.6115" stroke="#5C6E54" stroke-width="1.2" stroke-dasharray="1,4.2925" fill="none" /><path id="32" transform="matrix(1 0 0 -1 0 792)" d="M229.1383 453.9137C 205.9303 422.9367 200.7043 387.4317 207.4803 356.1857" stroke="#5C6E54" stroke-width="1.2" stroke-dasharray="1,4.115" fill="none" /><path id="33" transform="matrix(1 0 0 -1 0 792)" d="M208.3696 347.9101C 207.9056 345.1021 206.5426 342.4911 204.4616 340.4861" stroke="#5C6E54" stroke-width="1.2" stroke-dasharray="1,3.936666" fill="none" /><path id="34" transform="matrix(1 0 0 -1 0 792)" d="M197.3909 335.7964C 183.0129 326.9914 168.7479 317.9544 155.1549 308.2424" stroke="#5C6E54" stroke-width="1.2" stroke-dasharray="1,4.115833" fill="none" /><path id="35" transform="matrix(1 0 0 -1 0 792)" d="M146.3754 318.1763C 128.8964 372.3303 140.0854 431.4053 176.7414 477.8363" stroke="#5C6E54" stroke-width="1.2" stroke-dasharray="1,4.135" fill="none" /><path id="36" transform="matrix(1 0 0 -1 0 792)" d="M182.2818 484.511C 228.2298 536.999 299.6618 550.163 375.5648 563.534" stroke="#5C6E54" stroke-width="1.2" stroke-dasharray="1,4.1625" fill="none" /><path id="37" transform="matrix(1 0 0 -1 0 792)" d="M384.2124 565.0575C 403.3344 568.4325 422.7724 571.9295 442.2714 576.1765" stroke="#5C6E54" stroke-width="1.2" stroke-dasharray="1,4.235833" fill="none" /><path id="38" transform="matrix(1 0 0 -1 0 792)" d="M450.8093 577.3107C 459.8813 576.8337 467.7043 570.2227 469.4693 561.1227" stroke="#5C6E54" stroke-width="1.2" stroke-dasharray="1,4.088333" fill="none" /><path id="39" transform="matrix(1 0 0 -1 0 792)" d="M470.0652 552.4608C 470.3862 545.1638 470.7332 537.9028 471.0822 530.7058" stroke="#5C6E54" stroke-width="1.2" stroke-dasharray="1,4.1975" fill="none" /><path id="40" transform="matrix(1 0 0 -1 0 792)" d="M471.502 522.0127C 475.974 429.0787 479.159 341.5067 428.576 277.2817" stroke="#5C6E54" stroke-width="1.2" stroke-dasharray="1,4.153333" fill="none" /><path id="41" transform="matrix(1 0 0 -1 0 792)" d="M427.0206 275.3356C 426.8946 275.1796 426.7686 275.0246 426.6416 274.8696C 426.5156 274.7146 426.3886 274.5596 426.2616 274.4056M471.2036 528.1896C 471.2136 527.9896 471.2226 527.7896 471.2326 527.5906C 471.2426 527.3906 471.2516 527.1906 471.2616 526.9916M469.7896 558.6916C 469.8036 558.4936 469.8156 558.2936 469.8236 558.0926C 469.8316 557.8926 469.8406 557.6936 469.8486 557.4936M444.7536 576.7216C 444.9496 576.7646 445.1446 576.8076 445.3396 576.8506C 445.5356 576.8946 445.7316 576.9346 445.9276 576.9726M378.0246 563.9666C 378.2216 564.0016 378.4186 564.0366 378.6156 564.0706C 378.8126 564.1056 379.0096 564.1406 379.2066 564.1746M178.2916 479.7736C 178.4176 479.9286 178.5436 480.0836 178.6696 480.2386C 178.7966 480.3936 178.9236 480.5486 179.0506 480.7026M148.6246 312.0546C 148.4426 312.3666 148.2906 312.6536 148.1706 312.9126C 148.1026 313.1006 148.0356 313.2886 147.9686 313.4776M153.1496 306.8006C 152.9876 306.6836 152.8256 306.5666 152.6636 306.4486C 152.4576 306.7056 152.2566 306.9596 152.0596 307.2096M202.6246 339.0056C 202.4596 338.8946 202.2906 338.7866 202.1196 338.6826C 201.9486 338.5786 201.7776 338.4746 201.6066 338.3706M208.0286 353.7776C 208.0746 353.5836 208.1216 353.3886 208.1686 353.1946C 208.2166 352.9996 208.2596 352.8046 208.2976 352.6086M232.9346 458.7356C 232.8056 458.5836 232.6776 458.4306 232.5506 458.2746C 232.4236 458.1196 232.2976 457.9646 232.1716 457.8096M272.2416 460.3366C 272.1006 460.4776 271.9566 460.6166 271.8106 460.7546C 271.6646 460.8926 271.5186 461.0276 271.3706 461.1616M273.1216 423.1166C 273.2446 423.2736 273.3686 423.4306 273.4936 423.5876C 273.6176 423.7436 273.7406 423.9016 273.8616 424.0606M258.4306 386.0256C 258.4306 386.2226 258.4386 386.4226 258.4566 386.6246C 258.4736 386.8236 258.4916 387.0226 258.5106 387.2226M269.4146 380.8716C 269.2496 380.7586 269.0846 380.6456 268.9186 380.5326C 268.7516 380.4186 268.5816 380.3126 268.4096 380.2156M369.0826 482.0796C 368.9766 481.9106 368.8726 481.7396 368.7696 481.5676C 368.6676 481.3956 368.5656 481.2236 368.4626 481.0516M410.2696 487.3506C 410.1246 487.4866 409.9766 487.6206 409.8266 487.7546C 409.6766 487.8876 409.5256 488.0186 409.3736 488.1486M413.9266 452.5666C 414.0296 452.7376 414.1326 452.9086 414.2356 453.0806C 414.3386 453.2526 414.4396 453.4246 414.5396 453.5986M297.4036 334.9576C 297.6166 335.1456 297.8446 335.3236 298.0896 335.4906C 298.2546 335.6026 298.4206 335.7156 298.5856 335.8276M300.4416 323.4226C 300.2316 323.4826 300.0216 323.5446 299.8116 323.6066C 299.5276 323.6916 299.2556 323.7926 298.9966 323.9086M320.0086 320.7576C 319.8086 320.7556 319.6086 320.7546 319.4086 320.7546C 319.1896 320.7546 318.9716 320.7556 318.7526 320.7576M370.3206 345.2736C 370.1906 345.1216 370.0626 344.9686 369.9356 344.8136C 369.8096 344.6576 369.6826 344.5036 369.5546 344.3496M411.7966 344.4826C 411.6706 344.6396 411.5426 344.7956 411.4116 344.9496C 411.2826 345.1036 411.1526 345.2556 411.0206 345.4046M409.9486 309.0356C 410.0776 309.1886 410.2066 309.3406 410.3356 309.4946C 410.4656 309.6486 410.5936 309.8046 410.7206 309.9616M318.8086 267.1116C 319.0086 267.1106 319.2086 267.1106 319.4086 267.1106C 319.6086 267.1106 319.8086 267.1106 320.0086 267.1116M241.9126 295.4886C 242.0606 295.3526 242.2096 295.2196 242.3596 295.0876C 242.5106 294.9566 242.6616 294.8246 242.8126 294.6946M238.5066 298.0116C 238.6776 298.1156 238.8486 298.2186 239.0206 298.3226C 239.1646 298.1836 239.3076 298.0436 239.4496 297.9036M188.2806 266.0476C 188.4326 266.1746 188.5916 266.2966 188.7566 266.4126C 188.9206 266.5266 189.0846 266.6406 189.2496 266.7556M187.9616 256.1326C 187.8266 256.2836 187.6936 256.4336 187.5636 256.5816C 187.4306 256.7326 187.3046 256.8886 187.1876 257.0486M297.3576 213.0436C 297.1576 213.0426 296.9576 213.0426 296.7576 213.0426L296.7576 213.0426L296.7506 213.0426C 296.5506 213.0426 296.3506 213.0426 296.1506 213.0436" stroke="#5C6E54" stroke-width="1.2" fill="none" /></g><g clip-path="url(#3)"><path id="65" transform="matrix(1 0 0 -1 0 792)" d="M430.5389 313.7868C 432.1729 313.7868 432.3649 314.2668 432.3649 315.8048L432.3649 315.8048L432.3649 336.8498C 432.3649 339.4448 433.8069 340.0218 435.6329 340.0218C 437.7469 340.0218 439.0919 339.4448 439.0919 336.8498L439.0919 336.8498L439.0919 315.7088C 439.0919 314.2668 439.2839 313.7868 440.9179 313.7868L440.9179 313.7868L447.5489 313.7868C 449.6629 313.7868 450.0479 312.7298 450.0479 311.0958C 450.0479 309.1738 449.6629 308.2128 447.5489 308.2128L447.5489 308.2128L440.9179 308.2128C 439.4769 308.2128 439.0919 307.8278 439.0919 306.1948L439.0919 306.1948L439.0919 294.0868C 439.0919 291.4918 437.5549 290.9148 435.7289 290.9148C 433.6139 290.9148 432.3649 291.4918 432.3649 294.0868L432.3649 294.0868L432.3649 306.0978C 432.3649 307.6358 432.1729 308.2128 430.6359 308.2128L430.6359 308.2128L410.1659 308.2128C 406.0349 308.2128 404.1119 309.6538 404.1119 313.5948C 404.1119 314.8438 404.2089 316.4778 405.0729 318.2068C 409.2049 326.4718 414.5859 336.1778 424.3889 353.7638C 425.5419 355.7828 426.4069 357.0328 428.3289 357.0328C 430.3469 357.0328 431.6919 355.8778 431.6919 354.1478C 431.6919 353.7638 431.3089 352.8038 430.5389 351.4578C 419.0079 332.1418 410.9359 317.9198 410.9359 315.7088C 410.9359 314.0748 411.3189 313.7868 413.6259 313.7868z" stroke="none" fill="#5C6E54" fill-rule="nonzero" /><path id="66" transform="matrix(1 0 0 -1 0 792)" d="M181.8215 352.9911C 188.3565 352.9911 192.2005 352.5101 193.9305 351.4531C 194.9865 350.7811 195.2765 349.9161 195.2765 348.9541C 195.2765 347.5131 194.6035 346.1671 192.1045 346.4561C 189.2215 346.8401 186.4345 347.0321 182.3025 347.0321C 172.9815 347.0321 169.9055 343.3811 169.9055 337.8061C 169.9055 333.0991 173.3645 328.3891 182.0135 322.0471C 192.2965 314.6471 196.1405 310.0341 196.1405 302.1541C 196.1405 290.9101 188.1635 285.7211 175.2865 285.7211C 171.5385 285.7211 165.1965 286.1051 162.8905 287.3541C 162.0255 287.8351 161.6405 288.6041 161.6405 289.6611C 161.6405 291.1021 162.6015 292.7361 164.5235 292.4481C 168.6565 291.8711 172.0185 291.6791 175.4795 291.6791C 183.1665 291.6791 189.3175 294.0821 189.3175 301.6741C 189.3175 307.1521 186.8195 310.0341 177.0165 317.4331C 166.7345 325.1221 162.7945 330.6001 162.7945 337.6161C 162.7945 348.8581 171.1545 352.9911 181.8215 352.9911" stroke="none" fill="#5C6E54" fill-rule="nonzero" /><path id="67" transform="matrix(1 0 0 -1 0 792)" d="M211.1718 298.7907C 211.1718 293.6017 212.7098 292.0627 219.4368 292.0627C 232.8898 292.0627 236.0628 296.1957 236.0628 313.3017C 236.0628 330.0227 232.6018 333.6747 221.5508 333.6747C 211.9408 333.6747 211.1718 332.5217 211.1718 327.8127zM211.1718 272.1707C 211.1718 269.5757 209.8258 268.9997 207.9038 268.9997C 205.8858 268.9997 204.3488 269.5757 204.3488 272.0747L204.3488 272.0747L204.3488 333.4827C 204.3488 338.5757 211.9408 339.0557 221.4548 339.0557C 237.0228 339.0557 243.1728 333.3867 243.1728 313.6867C 243.1728 294.4657 238.5598 286.6827 216.9368 286.6827C 212.1328 286.6827 211.1718 286.2007 211.1718 283.7997z" stroke="none" fill="#5C6E54" fill-rule="nonzero" /><path id="68" transform="matrix(1 0 0 -1 0 792)" d="M253.1003 332.2332C 253.1003 335.6932 254.0613 336.6532 256.4643 337.2302C 261.2693 338.4802 267.6123 339.0562 271.7443 339.0562C 276.7413 339.0562 277.6063 338.1922 277.6063 336.0772C 277.6063 334.3472 276.9333 333.2902 275.4923 333.2902C 273.8573 333.2902 272.2253 333.5782 269.8223 333.5782C 262.0383 333.5782 259.9253 332.9062 259.9253 328.5812L259.9253 328.5812L259.9253 289.3732C 259.9253 286.8742 258.5783 286.2982 256.6563 286.2982C 254.6383 286.2982 253.1003 286.8742 253.1003 289.3732z" stroke="none" fill="#5C6E54" fill-rule="nonzero" /><path id="69" transform="matrix(1 0 0 -1 0 792)" d="M283.8907 335.4046C 283.8907 337.9986 285.3327 338.4796 287.2547 338.4796C 289.2727 338.4796 290.7137 337.9986 290.7137 335.4046L290.7137 335.4046L290.7137 289.3726C 290.7137 286.8736 289.2727 286.2976 287.3507 286.2976C 285.3327 286.2976 283.8907 286.8736 283.8907 289.3726zM287.5427 357.1226C 290.9067 357.1226 291.7717 356.1616 291.7717 352.7996C 291.7717 348.5706 290.5217 347.8016 287.5427 347.8016C 284.2757 347.8016 282.9307 348.5706 282.9307 352.5106C 282.9307 356.1616 284.0837 357.1226 287.5427 357.1226" stroke="none" fill="#5C6E54" fill-rule="nonzero" /><path id="70" transform="matrix(1 0 0 -1 0 792)" d="M340.0723 289.373C 340.0723 286.874 338.6313 286.297 336.7093 286.297C 334.7863 286.297 333.2493 286.874 333.2493 289.373L333.2493 289.373L333.2493 322.047C 333.2493 330.888 330.0783 333.578 320.4673 333.578C 316.4323 333.578 312.7803 333.29 311.1463 332.521C 309.5123 331.753 309.3203 330.888 309.3203 328.581L309.3203 328.581L309.3203 289.373C 309.3203 286.874 307.9753 286.297 306.0533 286.297C 304.0343 286.297 302.4973 286.874 302.4973 289.373L302.4973 289.373L302.4973 332.233C 302.4973 335.693 303.3623 336.75 305.8603 337.326C 310.6653 338.48 316.1433 339.056 320.5633 339.056C 335.4603 339.056 340.0723 334.828 340.0723 323.488z" stroke="none" fill="#5C6E54" fill-rule="nonzero" /><path id="71" transform="matrix(1 0 0 -1 0 792)" d="M385.562 298.512L384.05 298.512C 382.548 298.512 381.329 297.293 381.329 295.791L381.329 295.791L381.329 285.638C 381.329 278 377.609 275.16 364.779 275.16C 360.274 275.16 355.673 276.139 352.734 276.139C 351.364 276.139 350.972 274.964 350.972 273.69C 350.972 270.459 356.75 269.676 363.115 269.48L363.115 269.48L368.011 269.48C 379.371 269.872 388.284 272.418 388.284 287.5L388.284 287.5L388.284 295.791C 388.284 297.293 387.065 298.512 385.562 298.512" stroke="none" fill="#5C6E54" fill-rule="nonzero" /><path id="72" transform="matrix(1 0 0 -1 0 792)" d="M379.5232 308.833C 376.8832 305.598 373.1392 303.817 368.9852 303.817L368.9852 303.817L368.9832 303.817C 363.9372 303.817 361.0842 306.26 360.1242 307.349C 359.9122 307.591 359.9582 307.964 360.2212 308.147C 361.4582 309.011 362.8332 309.849 364.2992 310.736C 364.3902 310.649 364.4772 310.556 364.5702 310.473C 366.2222 309.031 368.5012 308.203 370.8222 308.203C 373.7222 308.203 376.3352 309.424 378.2002 311.643C 378.8982 312.473 378.9872 313.689 378.2872 314.519C 377.3782 315.6 375.7702 315.547 374.9222 314.509C 373.8792 313.231 372.4622 312.557 370.8222 312.557C 370.2742 312.557 369.7362 312.637 369.2332 312.787C 368.8012 312.917 368.7212 313.498 369.0932 313.752C 372.5392 316.098 375.9422 319.001 378.5162 323.293C 379.0622 324.202 378.9512 325.401 378.1582 326.106C 377.1012 327.048 375.5132 326.758 374.8272 325.605C 372.6802 321.995 369.7972 319.506 366.7252 317.407C 366.3502 317.151 365.8372 317.449 365.8762 317.901C 365.9642 318.911 366.3422 319.951 367.0972 320.9C 367.8092 321.795 367.7922 323.129 366.9602 323.916C 366.0302 324.795 364.5682 324.687 363.7752 323.715C 361.5922 321.04 361.1372 317.9 361.7972 315.189C 361.9082 314.731 361.7082 314.256 361.3052 314.011C 359.9382 313.179 358.5752 312.326 357.2932 311.396C 357.1192 311.613 356.9822 311.803 356.9282 311.92C 355.2802 316.504 356.2052 321.58 359.4032 325.497C 363.1642 330.104 369.2112 331.17 375.6262 332.298C 377.4042 332.613 379.2192 332.932 381.0402 333.335C 382.0332 333.555 382.9842 332.829 383.0272 331.814C 383.0622 330.982 383.1012 330.154 383.1402 329.338C 383.5192 321.535 383.8752 314.165 379.5232 308.833M389.6622 329.657C 389.6282 330.371 389.5952 331.307 389.5682 332.264C 389.4852 335.101 387.9082 337.682 385.4222 339.048L385.4222 339.048L385.4212 339.048C 383.7102 339.987 381.7182 340.269 379.8152 339.841C 378.0662 339.447 375.9162 338.979 374.4812 338.727C 367.5252 337.502 359.6412 336.114 354.3452 329.625C 351.1052 325.656 349.4792 320.849 349.6032 316.014C 349.5912 310.382 351.9772 305.123 355.7122 301.86C 359.0392 298.954 363.6752 297.288 368.4292 297.288L368.4292 297.288L368.4302 297.288C 368.5132 297.288 368.5962 297.293 368.6792 297.295C 368.7822 297.293 368.8822 297.288 368.9852 297.288C 375.1382 297.288 380.6772 299.922 384.5822 304.705C 390.5172 311.977 390.0642 321.368 389.6622 329.657" stroke="none" fill="#FFFFFF" fill-rule="nonzero" /></g></g></g></svg>