<svg xmlns="http://www.w3.org/2000/svg" xmlns:xlink="http://www.w3.org/1999/xlink" id="body_50" preserveAspectRatio="xMinYMin meet" viewBox="0 0 816 1056"><defs><clipPath id="1"><path id="" clip-rule="evenodd" transform="matrix(1 0 0 1 0 0)" d="M0 792L0 0L0 0L612 0L612 0L612 792L612 792L0 792z" /></clipPath><clipPath id="2"><path id="" clip-rule="evenodd" transform="matrix(1 0 0 1 0 0)" d="M0 0L612 0L612 0L612 792L612 792L0 792z" /></clipPath><clipPath id="3"><path id="" clip-rule="evenodd" transform="matrix(1 0 0 1 0 0)" d="M0 792L612 792L612 792L612 0L612 0L0 0z" /></clipPath><clipPath id="4"><path id="" clip-rule="evenodd" transform="matrix(1 0 0 1 0 0)" d="M0 792L612 792L612 792L612 0L612 0L0 0z" /></clipPath><clipPath id="5"><path id="" clip-rule="evenodd" transform="matrix(1 0 0 1 0 0)" d="M0 792L612 792L612 792L612 0L612 0L0 0z" /></clipPath><clipPath id="6"><path id="" clip-rule="evenodd" transform="matrix(1 0 0 1 0 0)" d="M0 792L612 792L612 792L612 0L612 0L0 0z" /></clipPath></defs><g transform="matrix(1.333333 0 0 1.333333 0 0)"><g clip-path="url(#1)"><g clip-path="url(#2)"><path id="68" transform="matrix(1 0 0 -1 0 792)" d="M184.159 736.6714C 184.397 736.6714 184.425 736.7414 184.425 736.9654L184.425 736.9654L184.425 740.0304C 184.425 740.4084 184.635 740.4924 184.901 740.4924C 185.209 740.4924 185.405 740.4084 185.405 740.0304L185.405 740.0304L185.405 736.9514C 185.405 736.7414 185.432 736.6714 185.67 736.6714L185.67 736.6714L186.636 736.6714C 186.944 736.6714 187 736.5174 187 736.2794C 187 735.9994 186.944 735.8594 186.636 735.8594L186.636 735.8594L185.67 735.8594C 185.461 735.8594 185.405 735.8034 185.405 735.5654L185.405 735.5654L185.405 733.8024C 185.405 733.4244 185.181 733.3404 184.915 733.3404C 184.607 733.3404 184.425 733.4244 184.425 733.8024L184.425 733.8024L184.425 735.5514C 184.425 735.7754 184.397 735.8594 184.173 735.8594L184.173 735.8594L181.192 735.8594C 180.59 735.8594 180.31 736.0694 180.31 736.6434C 180.31 736.8254 180.325 737.0634 180.45 737.3154C 181.052 738.5184 181.836 739.9324 183.263 742.4934C 183.431 742.7874 183.557 742.9694 183.837 742.9694C 184.131 742.9694 184.327 742.8014 184.327 742.5494C 184.327 742.4934 184.271 742.3534 184.159 742.1574C 182.48 739.3444 181.304 737.2734 181.304 736.9514C 181.304 736.7134 181.36 736.6714 181.696 736.6714z" stroke="none" fill="#5B6D54" fill-rule="nonzero" /><path id="69" transform="matrix(1 0 0 -1 0 792)" d="M147.9389 742.3806C 148.8909 742.3806 149.4509 742.3106 149.7019 742.1566C 149.8559 742.0586 149.8979 741.9326 149.8979 741.7926C 149.8979 741.5826 149.7999 741.3866 149.4359 741.4286C 149.0169 741.4846 148.6109 741.5126 148.0089 741.5126C 146.6519 741.5126 146.2039 740.9806 146.2039 740.1696C 146.2039 739.4836 146.7069 738.7976 147.9669 737.8746C 149.4639 736.7966 150.0239 736.1246 150.0239 734.9776C 150.0239 733.3396 148.8629 732.5846 146.9869 732.5846C 146.4419 732.5846 145.5179 732.6406 145.1819 732.8216C 145.0559 732.8916 144.9999 733.0036 144.9999 733.1576C 144.9999 733.3676 145.1399 733.6056 145.4199 733.5636C 146.0219 733.4796 146.5109 733.4516 147.0149 733.4516C 148.1349 733.4516 149.0309 733.8016 149.0309 734.9076C 149.0309 735.7046 148.6669 736.1246 147.2389 737.2026C 145.7419 738.3226 145.1679 739.1196 145.1679 740.1416C 145.1679 741.7786 146.3859 742.3806 147.9389 742.3806" stroke="none" fill="#5B6D54" fill-rule="nonzero" /><path id="70" transform="matrix(1 0 0 -1 0 792)" d="M152.2131 734.488C 152.2131 733.732 152.4371 733.508 153.4171 733.508C 155.3761 733.508 155.8381 734.11 155.8381 736.601C 155.8381 739.036 155.3341 739.568 153.7241 739.568C 152.3251 739.568 152.2131 739.4 152.2131 738.7141zM152.2131 730.611C 152.2131 730.233 152.0171 730.149 151.7371 730.149C 151.4431 730.149 151.2191 730.233 151.2191 730.597L151.2191 730.597L151.2191 739.54C 151.2191 740.281 152.3251 740.351 153.7101 740.351C 155.9781 740.351 156.8731 739.526 156.8731 736.657C 156.8731 733.858 156.2021 732.724 153.0531 732.724C 152.3531 732.724 152.2131 732.6541 152.2131 732.304z" stroke="none" fill="#5B6D54" fill-rule="nonzero" /><path id="71" transform="matrix(1 0 0 -1 0 792)" d="M158.319 739.3577C 158.319 739.8618 158.459 740.0017 158.809 740.0858C 159.509 740.2677 160.432 740.3517 161.034 740.3517C 161.762 740.3517 161.888 740.2257 161.888 739.9177C 161.888 739.6657 161.79 739.5117 161.58 739.5117C 161.342 739.5117 161.104 739.5537 160.754 739.5537C 159.621 739.5537 159.313 739.4557 159.313 738.8257L159.313 738.8257L159.313 733.1157C 159.313 732.7527 159.117 732.6687 158.837 732.6687C 158.543 732.6687 158.319 732.7527 158.319 733.1157z" stroke="none" fill="#5B6D54" fill-rule="nonzero" /><path id="72" transform="matrix(1 0 0 -1 0 792)" d="M162.8028 739.8193C 162.8028 740.1973 163.0128 740.2673 163.2928 740.2673C 163.5868 740.2673 163.7968 740.1973 163.7968 739.8193L163.7968 739.8193L163.7968 733.1163C 163.7968 732.7523 163.5868 732.6683 163.3068 732.6683C 163.0128 732.6683 162.8028 732.7523 162.8028 733.1163zM163.3348 742.9823C 163.8248 742.9823 163.9508 742.8423 163.9508 742.3523C 163.9508 741.7373 163.7688 741.6253 163.3348 741.6253C 162.8588 741.6253 162.6628 741.7373 162.6628 742.3103C 162.6628 742.8423 162.8308 742.9823 163.3348 742.9823" stroke="none" fill="#5B6D54" fill-rule="nonzero" /><path id="73" transform="matrix(1 0 0 -1 0 792)" d="M170.9846 733.1161C 170.9846 732.7521 170.7746 732.6681 170.4946 732.6681C 170.2146 732.6681 169.9906 732.7521 169.9906 733.1161L169.9906 733.1161L169.9906 737.8741C 169.9906 739.1621 169.5296 739.5531 168.1296 739.5531C 167.5416 739.5531 167.0106 739.5121 166.7726 739.4001C 166.5346 739.2881 166.5066 739.1621 166.5066 738.8261L166.5066 738.8261L166.5066 733.1161C 166.5066 732.7521 166.3106 732.6681 166.0306 732.6681C 165.7366 732.6681 165.5126 732.7521 165.5126 733.1161L165.5126 733.1161L165.5126 739.3581C 165.5126 739.8611 165.6386 740.0151 166.0026 740.0991C 166.7026 740.2671 167.4996 740.3511 168.1436 740.3511C 170.3126 740.3511 170.9846 739.7351 170.9846 738.0841z" stroke="none" fill="#5B6D54" fill-rule="nonzero" /><path id="74" transform="matrix(1 0 0 -1 0 792)" d="M177.6091 734.447L177.3891 734.447C 177.1701 734.447 176.9931 734.27 176.9931 734.051L176.9931 734.051L176.9931 732.572C 176.9931 731.46 176.4511 731.046 174.5821 731.046C 173.9261 731.046 173.2561 731.189 172.8281 731.189C 172.6291 731.189 172.5721 731.018 172.5721 730.832C 172.5721 730.362 173.4131 730.248 174.3401 730.219L174.3401 730.219L175.0531 730.219C 176.7071 730.276 178.0051 730.647 178.0051 732.843L178.0051 732.843L178.0051 734.051C 178.0051 734.27 177.8281 734.447 177.6091 734.447" stroke="none" fill="#5B6D54" fill-rule="nonzero" /><path id="75" transform="matrix(1 0 0 -1 0 792)" d="M176.7292 735.9505C 176.3452 735.4785 175.8002 735.2195 175.1952 735.2195L175.1952 735.2195L175.1952 735.2195C 174.4602 735.2195 174.0442 735.5755 173.9042 735.7335C 173.8742 735.7685 173.8802 735.8235 173.9192 735.8505C 174.0992 735.9755 174.2992 736.0975 174.5122 736.2275C 174.5262 736.2145 174.5382 736.2005 174.5522 736.1885C 174.7922 735.9785 175.1242 735.8585 175.4622 735.8585C 175.8852 735.8585 176.2652 736.0355 176.5372 736.3595C 176.6382 736.4805 176.6512 736.6575 176.5502 736.7785C 176.4172 736.9355 176.1832 736.9275 176.0592 736.7765C 175.9082 736.5905 175.7012 736.4925 175.4622 736.4925C 175.3832 736.4925 175.3042 736.5035 175.2312 736.5255C 175.1682 736.5445 175.1562 736.6295 175.2112 736.6665C 175.7122 737.0075 176.2082 737.4305 176.5832 738.0555C 176.6622 738.1885 176.6462 738.3625 176.5312 738.4655C 176.3772 738.6025 176.1462 738.5605 176.0462 738.3925C 175.7332 737.8665 175.3132 737.5045 174.8662 737.1985C 174.8112 737.1615 174.7362 737.2045 174.7422 737.2705C 174.7552 737.4175 174.8102 737.5695 174.9202 737.7075C 175.0242 737.8375 175.0212 738.0315 174.9002 738.1465C 174.7652 738.2745 174.5522 738.2585 174.4362 738.1175C 174.1182 737.7275 174.0522 737.2705 174.1482 736.8755C 174.1642 736.8085 174.1352 736.7395 174.0762 736.7035C 173.8772 736.5825 173.6792 736.4585 173.4922 736.3235C 173.4672 736.3545 173.4472 736.3825 173.4392 736.3995C 173.1992 737.0675 173.3342 737.8065 173.7992 738.3765C 174.3472 739.0475 175.2282 739.2025 176.1622 739.3675C 176.4212 739.4125 176.6852 739.4595 176.9502 739.5185C 177.0952 739.5505 177.2332 739.4445 177.2402 739.2965C 177.2452 739.1755 177.2502 739.0545 177.2562 738.9365C 177.3112 737.7995 177.3632 736.7265 176.7292 735.9505M178.2062 738.9825C 178.2012 739.0865 178.1962 739.2225 178.1922 739.3625C 178.1802 739.7755 177.9512 740.1515 177.5892 740.3505L177.5892 740.3505L177.5882 740.3505C 177.3392 740.4865 177.0492 740.5275 176.7722 740.4655C 176.5172 740.4085 176.2042 740.3405 175.9952 740.3035C 174.9822 740.1245 173.8342 739.9225 173.0632 738.9775C 172.5912 738.3995 172.3542 737.6995 172.3722 736.9955C 172.3712 736.1755 172.7182 735.4095 173.2622 734.9345C 173.7462 734.5115 174.4222 734.2685 175.1142 734.2685L175.1142 734.2685L175.1142 734.2685C 175.1262 734.2685 175.1382 734.2695 175.1502 734.2695C 175.1652 734.2695 175.1802 734.2685 175.1952 734.2685C 176.0912 734.2685 176.8982 734.6525 177.4662 735.3485C 178.3312 736.4075 178.2642 737.7755 178.2062 738.9825" stroke="none" fill="#99CA3C" fill-rule="nonzero" /></g><path id="76" transform="matrix(1 0 0 -1 0 792)" d="M50 690.97L562 690.97" stroke="#F2F2F2" stroke-width="14" fill="none" /><path id="77" transform="matrix(1 0 0 -1 0 792)" d="M50 690.97L562 690.97" stroke="#F2F2F2" stroke-width="14" stroke-dasharray="1,1" fill="none" /><path id="78" transform="matrix(1 0 0 -1 0 792)" d="M50 680.97L562 680.97" stroke="#F2F2F2" stroke-width="14" fill="none" /><path id="79" transform="matrix(1 0 0 -1 0 792)" d="M50 680.97L562 680.97" stroke="#F2F2F2" stroke-width="14" stroke-dasharray="1,1" fill="none" /><path id="80" transform="matrix(1 0 0 -1 0 792)" d="M50 670.97L562 670.97" stroke="#F2F2F2" stroke-width="14" fill="none" /><path id="81" transform="matrix(1 0 0 -1 0 792)" d="M50 670.97L562 670.97" stroke="#F2F2F2" stroke-width="14" stroke-dasharray="1,1" fill="none" /><path id="82" transform="matrix(1 0 0 -1 0 792)" d="M50 660.97L562 660.97" stroke="#F2F2F2" stroke-width="14" fill="none" /><path id="83" transform="matrix(1 0 0 -1 0 792)" d="M50 660.97L562 660.97" stroke="#F2F2F2" stroke-width="14" stroke-dasharray="1,1" fill="none" /><path id="84" transform="matrix(1 0 0 -1 0 792)" d="M50 650.97L562 650.97" stroke="#F2F2F2" stroke-width="14" fill="none" /><path id="85" transform="matrix(1 0 0 -1 0 792)" d="M50 650.97L562 650.97" stroke="#F2F2F2" stroke-width="14" stroke-dasharray="1,1" fill="none" /><path id="86" transform="matrix(1 0 0 -1 0 792)" d="M50 640.97L562 640.97" stroke="#F2F2F2" stroke-width="14" fill="none" /><path id="87" transform="matrix(1 0 0 -1 0 792)" d="M50 640.97L562 640.97" stroke="#F2F2F2" stroke-width="14" stroke-dasharray="1,1" fill="none" /><path id="88" transform="matrix(1 0 0 -1 0 792)" d="M50 630.97L562 630.97" stroke="#F2F2F2" stroke-width="14" fill="none" /><path id="89" transform="matrix(1 0 0 -1 0 792)" d="M50 630.97L562 630.97" stroke="#F2F2F2" stroke-width="14" stroke-dasharray="1,1" fill="none" /><path id="90" transform="matrix(1 0 0 -1 0 792)" d="M50 620.97L562 620.97" stroke="#F2F2F2" stroke-width="14" fill="none" /><path id="91" transform="matrix(1 0 0 -1 0 792)" d="M50 620.97L562 620.97" stroke="#F2F2F2" stroke-width="14" stroke-dasharray="1,1" fill="none" /><path id="92" transform="matrix(1 0 0 -1 0 792)" d="M50 610.97L562 610.97" stroke="#F2F2F2" stroke-width="14" fill="none" /><path id="93" transform="matrix(1 0 0 -1 0 792)" d="M50 610.97L562 610.97" stroke="#F2F2F2" stroke-width="14" stroke-dasharray="1,1" fill="none" /><path id="94" transform="matrix(1 0 0 -1 0 792)" d="M50 600.97L562 600.97" stroke="#F2F2F2" stroke-width="14" fill="none" /><path id="95" transform="matrix(1 0 0 -1 0 792)" d="M50 600.97L562 600.97" stroke="#F2F2F2" stroke-width="14" stroke-dasharray="1,1" fill="none" /><path id="96" transform="matrix(1 0 0 -1 0 792)" d="M50 590.97L562 590.97" stroke="#F2F2F2" stroke-width="14" fill="none" /><path id="97" transform="matrix(1 0 0 -1 0 792)" d="M50 590.97L562 590.97" stroke="#F2F2F2" stroke-width="14" stroke-dasharray="1,1" fill="none" /><path id="98" transform="matrix(1 0 0 -1 0 792)" d="M50 580.97L562 580.97" stroke="#F2F2F2" stroke-width="14" fill="none" /><path id="99" transform="matrix(1 0 0 -1 0 792)" d="M50 580.97L562 580.97" stroke="#F2F2F2" stroke-width="14" stroke-dasharray="1,1" fill="none" /><path id="100" transform="matrix(1 0 0 -1 0 792)" d="M50 570.97L562 570.97" stroke="#F2F2F2" stroke-width="14" fill="none" /><path id="101" transform="matrix(1 0 0 -1 0 792)" d="M50 570.97L562 570.97" stroke="#F2F2F2" stroke-width="14" stroke-dasharray="1,1" fill="none" /><path id="102" transform="matrix(1 0 0 -1 0 792)" d="M50 560.97L562 560.97" stroke="#F2F2F2" stroke-width="14" fill="none" /><path id="103" transform="matrix(1 0 0 -1 0 792)" d="M50 560.97L562 560.97" stroke="#F2F2F2" stroke-width="14" stroke-dasharray="1,1" fill="none" /><path id="104" transform="matrix(1 0 0 -1 0 792)" d="M50 550.97L562 550.97" stroke="#F2F2F2" stroke-width="14" fill="none" /><path id="105" transform="matrix(1 0 0 -1 0 792)" d="M50 550.97L562 550.97" stroke="#F2F2F2" stroke-width="14" stroke-dasharray="1,1" fill="none" /><path id="106" transform="matrix(1 0 0 -1 0 792)" d="M50 540.97L562 540.97" stroke="#F2F2F2" stroke-width="14" fill="none" /><path id="107" transform="matrix(1 0 0 -1 0 792)" d="M50 540.97L562 540.97" stroke="#F2F2F2" stroke-width="14" stroke-dasharray="1,1" fill="none" /><path id="108" transform="matrix(1 0 0 -1 0 792)" d="M50 530.97L562 530.97" stroke="#F2F2F2" stroke-width="14" fill="none" /><path id="109" transform="matrix(1 0 0 -1 0 792)" d="M50 530.97L562 530.97" stroke="#F2F2F2" stroke-width="14" stroke-dasharray="1,1" fill="none" /><path id="110" transform="matrix(1 0 0 -1 0 792)" d="M50 520.97L562 520.97" stroke="#F2F2F2" stroke-width="14" fill="none" /><path id="111" transform="matrix(1 0 0 -1 0 792)" d="M50 520.97L562 520.97" stroke="#F2F2F2" stroke-width="14" stroke-dasharray="1,1" fill="none" /><path id="112" transform="matrix(1 0 0 -1 0 792)" d="M50 510.97L562 510.97" stroke="#F2F2F2" stroke-width="14" fill="none" /><path id="113" transform="matrix(1 0 0 -1 0 792)" d="M50 510.97L562 510.97" stroke="#F2F2F2" stroke-width="14" stroke-dasharray="1,1" fill="none" /><path id="114" transform="matrix(1 0 0 -1 0 792)" d="M50 500.97L562 500.97" stroke="#F2F2F2" stroke-width="14" fill="none" /><path id="115" transform="matrix(1 0 0 -1 0 792)" d="M50 500.97L562 500.97" stroke="#F2F2F2" stroke-width="14" stroke-dasharray="1,1" fill="none" /><path id="116" transform="matrix(1 0 0 -1 0 792)" d="M50 490.97L562 490.97" stroke="#F2F2F2" stroke-width="14" fill="none" /><path id="117" transform="matrix(1 0 0 -1 0 792)" d="M50 490.97L562 490.97" stroke="#F2F2F2" stroke-width="14" stroke-dasharray="1,1" fill="none" /><path id="118" transform="matrix(1 0 0 -1 0 792)" d="M50 480.97L562 480.97" stroke="#F2F2F2" stroke-width="14" fill="none" /><path id="119" transform="matrix(1 0 0 -1 0 792)" d="M50 480.97L562 480.97" stroke="#F2F2F2" stroke-width="14" stroke-dasharray="1,1" fill="none" /><path id="120" transform="matrix(1 0 0 -1 0 792)" d="M50 470.97L562 470.97" stroke="#F2F2F2" stroke-width="14" fill="none" /><path id="121" transform="matrix(1 0 0 -1 0 792)" d="M50 470.97L562 470.97" stroke="#F2F2F2" stroke-width="14" stroke-dasharray="1,1" fill="none" /><path id="122" transform="matrix(1 0 0 -1 0 792)" d="M50 460.97L562 460.97" stroke="#F2F2F2" stroke-width="14" fill="none" /><path id="123" transform="matrix(1 0 0 -1 0 792)" d="M50 460.97L562 460.97" stroke="#F2F2F2" stroke-width="14" stroke-dasharray="1,1" fill="none" /><path id="124" transform="matrix(1 0 0 -1 0 792)" d="M50 450.97L562 450.97" stroke="#F2F2F2" stroke-width="14" fill="none" /><path id="125" transform="matrix(1 0 0 -1 0 792)" d="M50 450.97L562 450.97" stroke="#F2F2F2" stroke-width="14" stroke-dasharray="1,1" fill="none" /><path id="126" transform="matrix(1 0 0 -1 0 792)" d="M50 415.345L562 415.345" stroke="#9ED81C" stroke-width="0.75" fill="none" /><path id="127" transform="matrix(1 0 0 -1 0 792)" d="M50 327.595L562 327.595" stroke="#9ED81C" stroke-width="0.75" fill="none" /><path id="128" transform="matrix(1 0 0 -1 0 792)" d="M50 286.97L562 286.97" stroke="#C7E1AD" stroke-width="20" fill="none" /><path id="129" transform="matrix(1 0 0 -1 0 792)" d="M50 269.97L562 269.97" stroke="#C7E1AD" stroke-width="20" fill="none" /><path id="130" transform="matrix(1 0 0 -1 0 792)" d="M90 271.07L522 271.07" stroke="#FFFFFF" stroke-width="5" fill="none" /><g clip-path="url(#3)"><path id="131" transform="matrix(1 0 0 -1 0 792)" d="M50 241.57L562 241.57" stroke="#C7E1AD" stroke-width="38" fill="none" /></g><path id="132" transform="matrix(1 0 0 -1 0 792)" d="M50 210.07L562 210.07" stroke="#C7E1AD" stroke-width="21" fill="none" /><g clip-path="url(#4)"><path id="133" transform="matrix(1 0 0 -1 0 792)" d="M50 187.0701L562 187.0701" stroke="#C7E1AD" stroke-width="109" fill="none" /></g><path id="134" transform="matrix(1 0 0 -1 0 792)" d="M50 128.0701L562 128.0701" stroke="#C7E1AD" stroke-width="21" fill="none" /><g clip-path="url(#5)"><path id="135" transform="matrix(1 0 0 -1 0 792)" d="M50 153.0701L562 153.0701" stroke="#C7E1AD" stroke-width="109" fill="none" /></g><path id="136" transform="matrix(1 0 0 -1 0 792)" d="M422.1803 116.2172L457.0163 116.2172" stroke="#5D9CC7" stroke-width="0.22" fill="none" /><path id="137" transform="matrix(1 0 0 -1 0 792)" d="M50 110.5701L562 110.5701" stroke="#C7E1AD" stroke-width="20" fill="none" /><path id="138" transform="matrix(1 0 0 -1 0 792)" d="M50 93.5701L562 93.5701" stroke="#C7E1AD" stroke-width="20" fill="none" /><g clip-path="url(#6)"><path id="1080" transform="matrix(1 0 0 -1 0 792)" d="M129.8228 202.5055L135.7338 185.4985C 136.1518 184.2955 137.2728 183.4825 138.5448 183.4555L138.5448 183.4555L156.5468 183.0885C 160.8728 183.0005 162.6588 177.5035 159.2108 174.8915L159.2108 174.8915L144.8638 164.0125C 143.8488 163.2435 143.4218 161.9265 143.7888 160.7075L143.7888 160.7075L149.0038 143.4735C 150.2558 139.3325 145.5808 135.9345 142.0288 138.4065L142.0288 138.4065L128.1188 148.0875C 126.5528 149.1765 124.4738 149.1765 122.9068 148.0875L122.9068 148.0875L108.9958 138.4065C 105.4438 135.9345 100.7698 139.3325 102.0218 143.4735L102.0218 143.4735L107.2358 160.7075C 107.6048 161.9265 107.1758 163.2435 106.1628 164.0125L106.1628 164.0125L91.8138 174.8915C 88.3668 177.5035 90.1528 183.0005 94.4778 183.0885L94.4778 183.0885L112.4798 183.4555C 113.7518 183.4825 114.8738 184.2955 115.2908 185.4985L115.2908 185.4985L121.2028 202.5055C 122.6238 206.5915 128.4018 206.5915 129.8228 202.5055" stroke="none" fill="#FFFFFF" fill-rule="nonzero" /><path id="1081" transform="matrix(1 0 0 -1 0 792)" d="M137.1609 170.0413L113.8639 170.0413C 112.2559 170.0413 110.9519 168.7383 110.9519 167.1293C 110.9519 165.5213 112.2559 164.2173 113.8639 164.2173L113.8639 164.2173L137.1609 164.2173C 138.7699 164.2173 140.0739 165.5213 140.0739 167.1293C 140.0739 168.7383 138.7699 170.0413 137.1609 170.0413M129.0069 161.8873L113.8639 161.8873C 112.2559 161.8873 110.9519 160.5843 110.9519 158.9753C 110.9519 157.3663 112.2559 156.0633 113.8639 156.0633L113.8639 156.0633L129.0069 156.0633C 130.6159 156.0633 131.9189 157.3663 131.9189 158.9753C 131.9189 160.5843 130.6159 161.8873 129.0069 161.8873M113.8639 172.3713L137.1609 172.3713C 138.7699 172.3713 140.0739 173.6753 140.0739 175.2833C 140.0739 176.8923 138.7699 178.1953 137.1609 178.1953L137.1609 178.1953L113.8639 178.1953C 112.2559 178.1953 110.9519 176.8923 110.9519 175.2833C 110.9519 173.6753 112.2559 172.3713 113.8639 172.3713" stroke="none" fill="#C7E1AD" fill-rule="nonzero" /></g></g></g></svg>