<svg xmlns="http://www.w3.org/2000/svg" xmlns:xlink="http://www.w3.org/1999/xlink" id="body_90" preserveAspectRatio="xMinYMin meet" viewBox="0 0 816 1056"><defs><clipPath id="1"><path id="" clip-rule="evenodd" transform="matrix(1 0 0 1 0 0)" d="M0 792L0 0L0 0L612 0L612 0L612 792L612 792L0 792z" /></clipPath><clipPath id="2"><path id="" clip-rule="evenodd" transform="matrix(1 0 0 1 0 0)" d="M0 792L612 792L612 792L612 0L612 0L0 0z" /></clipPath><clipPath id="3"><path id="" clip-rule="evenodd" transform="matrix(1 0 0 1 0 0)" d="M0 792L612 792L612 792L612 0L612 0L0 0z" /></clipPath></defs><g transform="matrix(1.333333 0 0 1.333333 0 0)"><g clip-path="url(#1)"><path id="1" transform="matrix(1 0 0 -1 0 792)" d="M0 0L612 0L612 792L0 792z" stroke="none" fill="#C7E1AD" fill-rule="nonzero" /><g clip-path="url(#2)"><path id="2" transform="matrix(1 0 0 -1 0 792)" d="M435.9138 500.5315C 435.7968 503.5315 435.6858 506.8095 435.5808 510.1835" stroke="#FFFFFF" stroke-width="1" stroke-dasharray="1.045,5.045" fill="none" /><path id="3" transform="matrix(1 0 0 -1 0 792)" d="M435.0722 518.6162C 432.9622 535.3432 423.4192 550.2992 409.0172 559.2222" stroke="#FFFFFF" stroke-width="1" stroke-dasharray="1,4.907" fill="none" /><path id="4" transform="matrix(1 0 0 -1 0 792)" d="M401.6239 563.0756C 391.7159 567.3346 380.7739 568.6476 370.1099 566.8276" stroke="#FFFFFF" stroke-width="1" stroke-dasharray="1,4.885" fill="none" /><path id="5" transform="matrix(1 0 0 -1 0 792)" d="M361.5945 564.9982C 351.8925 562.8442 341.2565 560.5692 333.0155 559.0302" stroke="#FFFFFF" stroke-width="1" stroke-dasharray="1.179,5.179" fill="none" /><path id="6" transform="matrix(1 0 0 -1 0 792)" d="M324.4027 557.4937C 277.9547 549.2637 226.5227 538.8587 190.8897 497.0877" stroke="#FFFFFF" stroke-width="1" stroke-dasharray="1.047,5.047" fill="none" /><path id="7" transform="matrix(1 0 0 -1 0 792)" d="M185.5081 490.3888C 165.7551 464.3278 155.5721 433.5608 155.6961 402.4988" stroke="#FFFFFF" stroke-width="1" stroke-dasharray="1.031,5.031" fill="none" /><path id="8" transform="matrix(1 0 0 -1 0 792)" d="M155.8355 394.0456C 157.1755 357.7906 172.5985 324.2286 196.2985 302.3616" stroke="#FFFFFF" stroke-width="1" stroke-dasharray="1,4.924" fill="none" /><path id="9" transform="matrix(1 0 0 -1 0 792)" d="M202.7525 296.8478C 224.9205 279.2798 254.2605 269.0468 284.5015 268.4068" stroke="#FFFFFF" stroke-width="1" stroke-dasharray="1.019,5.019" fill="none" /><path id="10" transform="matrix(1 0 0 -1 0 792)" d="M296.8867 268.4749C 336.7817 269.9359 372.6527 287.3689 398.6727 318.0019" stroke="#FFFFFF" stroke-width="1" stroke-dasharray="1,4.977" fill="none" /><path id="11" transform="matrix(1 0 0 -1 0 792)" d="M404.0238 324.6786C 441.2768 374.0376 438.9758 436.3166 436.3008 491.9266" stroke="#FFFFFF" stroke-width="1" stroke-dasharray="1.046,5.046" fill="none" /><path id="12" transform="matrix(1 0 0 -1 0 792)" d="M436.1792 494.4467C 436.1712 494.6207 436.1622 494.7947 436.1542 494.9687C 436.1462 495.1417 436.1372 495.3157 436.1292 495.4907M400.2682 319.9117C 400.3742 320.0407 400.4802 320.1697 400.5852 320.2987C 400.6952 320.4337 400.8052 320.5687 400.9152 320.7047M290.9102 268.3807C 291.0772 268.3767 291.2442 268.3747 291.4102 268.3747C 291.5772 268.3747 291.7442 268.3757 291.9102 268.3757M288.7782 268.4097C 288.9442 268.4157 289.1112 268.4197 289.2782 268.4217C 289.4452 268.4197 289.6112 268.4157 289.7782 268.4107M287.0112 268.3757C 287.1802 268.3757 287.3502 268.3747 287.5202 268.3747L287.5202 268.3747L287.5232 268.3747C 287.6912 268.3747 287.8572 268.3787 288.0232 268.3827M198.1272 300.7127C 198.2522 300.6027 198.3772 300.4927 198.5032 300.3827C 198.6312 300.2717 198.7592 300.1597 198.8872 300.0487M155.7282 399.9837C 155.7322 399.8117 155.7362 399.6397 155.7412 399.4687C 155.7402 399.3017 155.7402 399.1347 155.7412 398.9687M189.2692 495.1527C 189.1582 495.0177 189.0482 494.8827 188.9372 494.7477C 188.8292 494.6147 188.7202 494.4817 188.6122 494.3477M330.4682 558.5647C 330.2732 558.5297 330.0792 558.4957 329.8882 558.4617C 329.7162 558.4317 329.5442 558.4007 329.3722 558.3707M367.7122 566.3647C 367.5492 566.3297 367.3862 566.2937 367.2232 566.2567C 367.0322 566.2137 366.8412 566.1707 366.6482 566.1277M406.9042 560.4687C 406.7592 560.5507 406.6132 560.6317 406.4672 560.7117L406.4672 560.7117L406.4612 560.7147C 406.3152 560.7947 406.1692 560.8747 406.0222 560.9537M435.5052 512.7047C 435.5002 512.8787 435.4952 513.0527 435.4902 513.2267C 435.4852 513.3937 435.4792 513.5607 435.4732 513.7267" stroke="#FFFFFF" stroke-width="1" fill="none" /><path id="13" transform="matrix(1 0 0 -1 0 792)" d="M361.5708 345.0117C 344.0378 325.7607 320.4778 314.9037 294.4288 314.1247" stroke="#FFFFFF" stroke-width="1" stroke-dasharray="1.019,5.019" fill="none" /><path id="14" transform="matrix(1 0 0 -1 0 792)" d="M285.7251 314.2306C 256.9601 315.7676 239.3331 328.7376 231.5331 336.5366" stroke="#FFFFFF" stroke-width="1" stroke-dasharray="1.123,5.123" fill="none" /><path id="15" transform="matrix(1 0 0 -1 0 792)" d="M234.4487 347.3842C 241.2057 351.9052 248.4817 356.3772 256.1367 361.0172" stroke="#FFFFFF" stroke-width="1" stroke-dasharray="1,4.802" fill="none" /><path id="16" transform="matrix(1 0 0 -1 0 792)" d="M264.7962 357.2809C 275.0872 349.8489 288.0052 345.4339 301.2912 344.8559" stroke="#FFFFFF" stroke-width="1" stroke-dasharray="1,4.97" fill="none" /><path id="17" transform="matrix(1 0 0 -1 0 792)" d="M309.7113 344.9976C 326.8513 346.3116 342.2923 353.8516 353.9613 366.6306" stroke="#FFFFFF" stroke-width="1" stroke-dasharray="1,4.941" fill="none" /><path id="18" transform="matrix(1 0 0 -1 0 792)" d="M358.6169 373.2848C 360.4339 377.6228 360.3829 382.5508 358.1369 386.6568" stroke="#FFFFFF" stroke-width="1" stroke-dasharray="1,4.698" fill="none" /><path id="19" transform="matrix(1 0 0 -1 0 792)" d="M351.8595 392.7854C 346.5565 395.5774 340.0655 394.9754 335.3675 391.2804" stroke="#FFFFFF" stroke-width="1" stroke-dasharray="1.365,5.365" fill="none" /><path id="20" transform="matrix(1 0 0 -1 0 792)" d="M328.8996 384.6155C 322.9426 379.1955 315.6926 376.0555 307.5626 375.3925" stroke="#FFFFFF" stroke-width="1" stroke-dasharray="1.291,5.291" fill="none" /><path id="21" transform="matrix(1 0 0 -1 0 792)" d="M299.029 375.6138C 297.985 375.7548 296.952 375.9378 295.934 376.1598" stroke="#FFFFFF" stroke-width="1" stroke-dasharray="1,4.762" fill="none" /><path id="22" transform="matrix(1 0 0 -1 0 792)" d="M296.6545 386.7346C 318.5455 402.1326 339.8925 421.0556 356.5805 447.8806" stroke="#FFFFFF" stroke-width="1" stroke-dasharray="1,4.957" fill="none" /><path id="23" transform="matrix(1 0 0 -1 0 792)" d="M360.0622 455.1697C 361.1142 459.6337 360.2882 464.3957 357.5402 468.0447" stroke="#FFFFFF" stroke-width="1" stroke-dasharray="1,4.645" fill="none" /><path id="24" transform="matrix(1 0 0 -1 0 792)" d="M350.4561 473.1898C 344.7931 475.1898 338.4461 473.6378 334.3361 469.2878" stroke="#FFFFFF" stroke-width="1" stroke-dasharray="1.37,5.37" fill="none" /><path id="25" transform="matrix(1 0 0 -1 0 792)" d="M329.468 462.0091C 315.375 440.1131 297.297 424.3151 278.028 410.8901" stroke="#FFFFFF" stroke-width="1" stroke-dasharray="1,4.902" fill="none" /><path id="26" transform="matrix(1 0 0 -1 0 792)" d="M270.4957 417.9608C 271.5487 422.4848 273.4837 427.0118 276.4537 431.3178" stroke="#FFFFFF" stroke-width="1" stroke-dasharray="1,4.857" fill="none" /><path id="27" transform="matrix(1 0 0 -1 0 792)" d="M280.8041 438.3504C 282.5071 443.0824 282.0101 448.4404 279.1561 452.5544" stroke="#FFFFFF" stroke-width="1" stroke-dasharray="1,4.882" fill="none" /><path id="28" transform="matrix(1 0 0 -1 0 792)" d="M272.4784 457.8559C 267.3834 459.9259 261.4804 459.0859 257.1594 455.5829" stroke="#FFFFFF" stroke-width="1" stroke-dasharray="1.135,5.135" fill="none" /><path id="29" transform="matrix(1 0 0 -1 0 792)" d="M251.6907 449.0836C 239.9037 432.3156 237.1127 413.4086 240.4607 396.5586" stroke="#FFFFFF" stroke-width="1" stroke-dasharray="1,4.884" fill="none" /><path id="30" transform="matrix(1 0 0 -1 0 792)" d="M240.7613 389.0896C 240.4783 388.3886 240.0893 387.7296 239.6063 387.1376" stroke="#FFFFFF" stroke-width="1" stroke-dasharray="1,4.185" fill="none" /><path id="31" transform="matrix(1 0 0 -1 0 792)" d="M233.159 382.6897C 225.937 378.2417 218.783 373.6757 211.918 368.8167" stroke="#FFFFFF" stroke-width="1" stroke-dasharray="1,4.776" fill="none" /><path id="32" transform="matrix(1 0 0 -1 0 792)" d="M205.3156 376.0055C 196.4966 405.7755 202.7626 437.9205 222.4856 463.5085" stroke="#FFFFFF" stroke-width="1" stroke-dasharray="1,4.972" fill="none" /><path id="33" transform="matrix(1 0 0 -1 0 792)" d="M227.944 470.002C 253.829 498.107 293.139 505.57 334.948 512.944" stroke="#FFFFFF" stroke-width="1" stroke-dasharray="1,5" fill="none" /><path id="34" transform="matrix(1 0 0 -1 0 792)" d="M343.6379 514.4768C 353.2139 516.1748 362.9199 517.9468 372.6579 520.0378" stroke="#FFFFFF" stroke-width="1" stroke-dasharray="1.216,5.216" fill="none" /><path id="35" transform="matrix(1 0 0 -1 0 792)" d="M381.7188 520.4759C 385.1178 519.4059 387.9018 516.7769 389.0918 513.3279" stroke="#FFFFFF" stroke-width="1" stroke-dasharray="1.329,5.329" fill="none" /><path id="36" transform="matrix(1 0 0 -1 0 792)" d="M389.9393 504.7051C 390.0763 501.6801 390.2193 498.6681 390.3643 495.6741" stroke="#FFFFFF" stroke-width="1" stroke-dasharray="1,4.869" fill="none" /><path id="37" transform="matrix(1 0 0 -1 0 792)" d="M390.7695 487.2644C 393.2225 435.8064 394.5635 387.3964 367.0375 351.5444" stroke="#FFFFFF" stroke-width="1" stroke-dasharray="1,4.985" fill="none" /><path id="38" transform="matrix(1 0 0 -1 0 792)" d="M365.495 349.5865C 365.39 349.4565 365.285 349.3275 365.18 349.1985C 365.072 349.0665 364.965 348.9355 364.857 348.8045M390.482 493.2425C 390.49 493.0765 390.498 492.9095 390.506 492.7435C 390.514 492.5765 390.522 492.4105 390.53 492.2435M389.659 510.7315C 389.681 510.5125 389.696 510.2915 389.706 510.0685C 389.712 509.9025 389.719 509.7355 389.726 509.5695M375.206 520.5925C 375.404 520.6355 375.602 520.6795 375.8 520.7235C 376.017 520.7715 376.235 520.8135 376.452 520.8485M337.411 513.3775C 337.575 513.4065 337.739 513.4355 337.903 513.4645C 338.102 513.4995 338.302 513.5345 338.502 513.5695M224.026 465.4595C 224.131 465.5885 224.236 465.7185 224.341 465.8475C 224.447 465.9765 224.552 466.1055 224.658 466.2335M207.251 370.3635C 207.159 370.5235 207.081 370.6715 207.019 370.8065C 206.962 370.9635 206.906 371.1205 206.851 371.2775M209.976 367.4285C 209.841 367.3305 209.706 367.2325 209.571 367.1355C 209.465 367.2675 209.361 367.3975 209.26 367.5265M238.078 385.7175C 237.942 385.6215 237.803 385.5305 237.66 385.4435C 237.517 385.3565 237.375 385.2705 237.233 385.1835M240.979 394.1725C 241.017 394.0105 241.056 393.8485 241.095 393.6865C 241.135 393.5235 241.169 393.3605 241.198 393.1975M255.31 453.8055C 255.186 453.6635 255.063 453.5195 254.943 453.3725C 254.838 453.2425 254.733 453.1135 254.628 452.9835M277.599 454.4305C 277.482 454.5485 277.363 454.6655 277.242 454.7805C 277.104 454.9115 276.964 455.0385 276.822 455.1635M277.888 433.2765C 277.99 433.4075 278.093 433.5385 278.197 433.6695C 278.301 433.8005 278.403 433.9325 278.503 434.0655M269.727 411.5375C 269.649 411.8965 269.623 412.2765 269.657 412.6745C 269.671 412.8405 269.687 413.0065 269.703 413.1725M276.012 409.4965C 275.875 409.4025 275.737 409.3085 275.599 409.2145C 275.27 408.9895 274.925 408.8255 274.575 408.7165M332.674 467.1835C 332.549 466.9935 332.428 466.7995 332.311 466.6025C 332.226 466.4585 332.14 466.3155 332.055 466.1725M355.997 469.7775C 355.877 469.8925 355.754 470.0055 355.629 470.1165C 355.458 470.2695 355.284 470.4175 355.108 470.5605M357.876 449.9935C 357.962 450.1355 358.048 450.2785 358.134 450.4215C 358.22 450.5645 358.303 450.7095 358.384 450.8545M291.342 382.8735C 291.569 383.1545 291.844 383.4105 292.167 383.6305C 292.305 383.7245 292.443 383.8185 292.58 383.9125M293.625 376.7405C 293.465 376.7865 293.305 376.8335 293.145 376.8805C 292.769 376.9935 292.431 377.1555 292.132 377.3565M304.921 375.2655C 304.706 375.2625 304.491 375.2605 304.275 375.2605C 304.109 375.2605 303.942 375.2615 303.776 375.2635M333.416 389.4455C 333.265 389.2765 333.118 389.1035 332.973 388.9255C 332.837 388.7585 332.699 388.5935 332.561 388.4295M356.845 388.6155C 356.743 388.7465 356.638 388.8755 356.53 389.0035C 356.382 389.1785 356.232 389.3495 356.08 389.5165M355.596 368.4835C 355.704 368.6095 355.811 368.7375 355.918 368.8645C 356.026 368.9925 356.131 369.1215 356.234 369.2525M303.775 344.7925C 303.942 344.7915 304.109 344.7905 304.275 344.7905C 304.442 344.7905 304.609 344.7915 304.775 344.7925M260.144 361.0175C 260.266 360.9035 260.389 360.7915 260.515 360.6815C 260.64 360.5725 260.766 360.4635 260.893 360.3545M258.19 362.2605C 258.333 362.3465 258.475 362.4325 258.618 362.5195C 258.738 362.4035 258.857 362.2865 258.975 362.1695M229.617 344.0225C 229.756 344.1555 229.907 344.2805 230.07 344.3945C 230.207 344.4895 230.344 344.5845 230.481 344.6795M229.766 338.3915C 229.638 338.5335 229.513 338.6735 229.393 338.8105C 229.261 338.9595 229.144 339.1165 229.041 339.2785M291.92 314.0815C 291.75 314.0805 291.58 314.0805 291.411 314.0805L291.411 314.0805L291.407 314.0805C 291.219 314.0805 291.032 314.0805 290.845 314.0815" stroke="#FFFFFF" stroke-width="1" fill="none" /></g><g clip-path="url(#3)"><path id="63" transform="matrix(1 0 0 -1 0 792)" d="M371.2309 45.1057C 371.4689 45.1057 371.4969 45.1757 371.4969 45.3997L371.4969 45.3997L371.4969 48.4647C 371.4969 48.8427 371.7069 48.9267 371.9729 48.9267C 372.2809 48.9267 372.4769 48.8427 372.4769 48.4647L372.4769 48.4647L372.4769 45.3857C 372.4769 45.1757 372.5039 45.1057 372.7419 45.1057L372.7419 45.1057L373.7079 45.1057C 374.0159 45.1057 374.0719 44.9517 374.0719 44.7137C 374.0719 44.4337 374.0159 44.2937 373.7079 44.2937L373.7079 44.2937L372.7419 44.2937C 372.5329 44.2937 372.4769 44.2377 372.4769 43.9997L372.4769 43.9997L372.4769 42.2367C 372.4769 41.8587 372.2529 41.7747 371.9869 41.7747C 371.6789 41.7747 371.4969 41.8587 371.4969 42.2367L371.4969 42.2367L371.4969 43.9857C 371.4969 44.2097 371.4689 44.2937 371.2449 44.2937L371.2449 44.2937L368.2639 44.2937C 367.6619 44.2937 367.3819 44.5037 367.3819 45.0777C 367.3819 45.2597 367.3969 45.4977 367.5219 45.7497C 368.1239 46.9527 368.9079 48.3667 370.3349 50.9277C 370.5029 51.2217 370.6289 51.4037 370.9089 51.4037C 371.2029 51.4037 371.3989 51.2357 371.3989 50.9837C 371.3989 50.9277 371.3429 50.7877 371.2309 50.5917C 369.5519 47.7787 368.3759 45.7077 368.3759 45.3857C 368.3759 45.1477 368.4319 45.1057 368.7679 45.1057z" stroke="none" fill="#5B6D54" fill-rule="nonzero" /><path id="64" transform="matrix(1 0 0 -1 0 792)" d="M335.0107 50.8148C 335.9627 50.8148 336.5227 50.7448 336.7737 50.5908C 336.9277 50.4928 336.9697 50.3668 336.9697 50.2268C 336.9697 50.0168 336.8717 49.8208 336.5077 49.8628C 336.0887 49.9188 335.6827 49.9468 335.0807 49.9468C 333.7237 49.9468 333.2757 49.4148 333.2757 48.6038C 333.2757 47.9178 333.7787 47.2318 335.0387 46.3088C 336.5367 45.2308 337.0957 44.5588 337.0957 43.4118C 337.0957 41.7738 335.9347 41.0188 334.0587 41.0188C 333.5137 41.0188 332.5897 41.0748 332.2537 41.2558C 332.1277 41.3258 332.0717 41.4378 332.0717 41.5918C 332.0717 41.8018 332.2117 42.0398 332.4917 41.9978C 333.0937 41.9138 333.5827 41.8858 334.0867 41.8858C 335.2067 41.8858 336.1027 42.2358 336.1027 43.3418C 336.1027 44.1388 335.7387 44.5588 334.3107 45.6368C 332.8137 46.7558 332.2397 47.5538 332.2397 48.5758C 332.2397 50.2128 333.4577 50.8148 335.0107 50.8148" stroke="none" fill="#5B6D54" fill-rule="nonzero" /><path id="65" transform="matrix(1 0 0 -1 0 792)" d="M339.2849 42.9221C 339.2849 42.1661 339.5089 41.9421 340.4889 41.9421C 342.4479 41.9421 342.9099 42.5441 342.9099 45.0351C 342.9099 47.4701 342.4059 48.0021 340.7959 48.0021C 339.3969 48.0021 339.2849 47.8341 339.2849 47.1481zM339.2849 39.0451C 339.2849 38.6671 339.0889 38.5831 338.8089 38.5831C 338.5149 38.5831 338.2909 38.6671 338.2909 39.0311L338.2909 39.0311L338.2909 47.9741C 338.2909 48.7151 339.3969 48.7851 340.7819 48.7851C 343.0499 48.7851 343.9449 47.9601 343.9449 45.0911C 343.9449 42.2921 343.2739 41.1581 340.1249 41.1581C 339.4249 41.1581 339.2849 41.0881 339.2849 40.7381z" stroke="none" fill="#5B6D54" fill-rule="nonzero" /><path id="66" transform="matrix(1 0 0 -1 0 792)" d="M345.3909 47.7919C 345.3909 48.2959 345.5309 48.4359 345.8809 48.5199C 346.5809 48.7019 347.5039 48.7859 348.1059 48.7859C 348.8339 48.7859 348.9599 48.6599 348.9599 48.3519C 348.9599 48.0999 348.8619 47.9459 348.6519 47.9459C 348.4139 47.9459 348.1759 47.9879 347.8259 47.9879C 346.6929 47.9879 346.3849 47.8899 346.3849 47.2599L346.3849 47.2599L346.3849 41.5499C 346.3849 41.1869 346.1889 41.1029 345.9089 41.1029C 345.6149 41.1029 345.3909 41.1869 345.3909 41.5499z" stroke="none" fill="#5B6D54" fill-rule="nonzero" /><path id="67" transform="matrix(1 0 0 -1 0 792)" d="M349.8746 48.2535C 349.8746 48.6315 350.0846 48.7015 350.3646 48.7015C 350.6586 48.7015 350.8686 48.6315 350.8686 48.2535L350.8686 48.2535L350.8686 41.5505C 350.8686 41.1865 350.6586 41.1025 350.3786 41.1025C 350.0846 41.1025 349.8746 41.1865 349.8746 41.5505zM350.4066 51.4165C 350.8966 51.4165 351.0226 51.2765 351.0226 50.7865C 351.0226 50.1715 350.8406 50.0595 350.4066 50.0595C 349.9306 50.0595 349.7346 50.1715 349.7346 50.7445C 349.7346 51.2765 349.9026 51.4165 350.4066 51.4165" stroke="none" fill="#5B6D54" fill-rule="nonzero" /><path id="68" transform="matrix(1 0 0 -1 0 792)" d="M358.0564 41.5503C 358.0564 41.1863 357.8464 41.1023 357.5664 41.1023C 357.2864 41.1023 357.0624 41.1863 357.0624 41.5503L357.0624 41.5503L357.0624 46.3083C 357.0624 47.5963 356.6014 47.9883 355.2014 47.9883C 354.6134 47.9883 354.0824 47.9463 353.8444 47.8343C 353.6064 47.7223 353.5784 47.5963 353.5784 47.2603L353.5784 47.2603L353.5784 41.5503C 353.5784 41.1863 353.3824 41.1023 353.1024 41.1023C 352.8084 41.1023 352.5844 41.1863 352.5844 41.5503L352.5844 41.5503L352.5844 47.7923C 352.5844 48.2953 352.7104 48.4493 353.0744 48.5333C 353.7744 48.7013 354.5714 48.7853 355.2154 48.7853C 357.3844 48.7853 358.0564 48.1693 358.0564 46.5183z" stroke="none" fill="#5B6D54" fill-rule="nonzero" /><path id="69" transform="matrix(1 0 0 -1 0 792)" d="M364.681 42.8812L364.461 42.8812C 364.242 42.8812 364.065 42.7042 364.065 42.4852L364.065 42.4852L364.065 41.0062C 364.065 39.8942 363.523 39.4802 361.654 39.4802C 360.998 39.4802 360.328 39.6232 359.9 39.6232C 359.701 39.6232 359.644 39.4522 359.644 39.2662C 359.644 38.7962 360.485 38.6822 361.412 38.6532L361.412 38.6532L362.125 38.6532C 363.779 38.7102 365.077 39.0812 365.077 41.2772L365.077 41.2772L365.077 42.4852C 365.077 42.7042 364.9 42.8812 364.681 42.8812" stroke="none" fill="#5B6D54" fill-rule="nonzero" /><path id="70" transform="matrix(1 0 0 -1 0 792)" d="M363.8011 44.3837C 363.4171 43.9127 362.8721 43.6537 362.2671 43.6537L362.2671 43.6537L362.2671 43.6537C 361.5321 43.6537 361.1161 44.0097 360.9761 44.1677C 360.9461 44.2027 360.9521 44.2577 360.9911 44.2847C 361.1711 44.4097 361.3711 44.5317 361.5841 44.6617C 361.5981 44.6487 361.6101 44.6347 361.6241 44.6227C 361.8641 44.4127 362.1961 44.2927 362.5341 44.2927C 362.9571 44.2927 363.3371 44.4697 363.6091 44.7937C 363.7101 44.9147 363.7231 45.0917 363.6221 45.2127C 363.4891 45.3697 363.2551 45.3617 363.1311 45.2107C 362.9801 45.0247 362.7731 44.9267 362.5341 44.9267C 362.4551 44.9267 362.3761 44.9377 362.3031 44.9597C 362.2401 44.9787 362.2281 45.0637 362.2831 45.1007C 362.7841 45.4417 363.2801 45.8647 363.6551 46.4897C 363.7341 46.6227 363.7181 46.7967 363.6031 46.8997C 363.4491 47.0367 363.2181 46.9947 363.1181 46.8267C 362.8051 46.3007 362.3851 45.9387 361.9381 45.6327C 361.8831 45.5957 361.8081 45.6387 361.8141 45.7047C 361.8271 45.8517 361.8821 46.0037 361.9921 46.1417C 362.0961 46.2717 362.0931 46.4657 361.9721 46.5807C 361.8371 46.7087 361.6241 46.6927 361.5081 46.5517C 361.1901 46.1617 361.1241 45.7047 361.2201 45.3097C 361.2361 45.2427 361.2071 45.1737 361.1481 45.1377C 360.9491 45.0167 360.7511 44.8927 360.5641 44.7577C 360.5391 44.7887 360.5191 44.8167 360.5111 44.8337C 360.2711 45.5017 360.4061 46.2407 360.8721 46.8107C 361.4191 47.4817 362.3001 47.6367 363.2341 47.8017C 363.4931 47.8467 363.7571 47.8937 364.0221 47.9527C 364.1671 47.9847 364.3051 47.8787 364.3121 47.7307C 364.3171 47.6097 364.3221 47.4887 364.3281 47.3707C 364.3831 46.2337 364.4351 45.1607 363.8011 44.3837M365.2781 47.4167C 365.2731 47.5207 365.2681 47.6567 365.2641 47.7967C 365.2521 48.2097 365.0231 48.5857 364.6611 48.7847L364.6611 48.7847L364.6601 48.7847C 364.4111 48.9207 364.1211 48.9617 363.8441 48.8997C 363.5891 48.8427 363.2761 48.7747 363.0671 48.7377C 362.0541 48.5587 360.9061 48.3567 360.1351 47.4117C 359.6631 46.8337 359.4261 46.1337 359.4441 45.4297C 359.4421 44.6097 359.7901 43.8437 360.3341 43.3687C 360.8181 42.9457 361.4941 42.7027 362.1861 42.7027L362.1861 42.7027L362.1861 42.7027C 362.1981 42.7027 362.2101 42.7037 362.2221 42.7037C 362.2371 42.7037 362.2521 42.7027 362.2671 42.7027C 363.1631 42.7027 363.9701 43.0867 364.5381 43.7827C 365.4031 44.8417 365.3361 46.2097 365.2781 47.4167" stroke="none" fill="#99CA3C" fill-rule="nonzero" /></g></g></g></svg>